# xmcd
#
# Track frame offsets: 
#        150
#        14620
#        36405
#        55107
#        73637
#        86707
#        102105
#        119692
#        136647
#        155185
#        172637
#        190250
#        208767
#        228005
#        245560
#        266532
#
# Disc length: 3786 seconds
#
# Revision: 0
# Processed by: cddbd v1.5.1PL0 Copyright (c) Steve Scherf et al.
# Submitted via: ExactAudioCopy v0.95a5
#
DISCID=db0ec810
DTITLE=伊能静 - 十九岁的最后一天
DYEAR=1997
DGENRE=Pop
TTITLE0=十九岁的最后一天
TTITLE1=生日快乐
TTITLE2=带我去月亮
TTITLE3=我累了
TTITLE4=我是最好的朋友
TTITLE5=骄傲的面具
TTITLE6=很想给你写封信
TTITLE7=可以不可以
TTITLE8=太多的心
TTITLE9=加一些想象
TTITLE10=落入凡间的精灵
TTITLE11=坏女孩
TTITLE12=街头顽童
TTITLE13=永远是你纯纯的脸
TTITLE14=紧紧拥抱我
TTITLE15=最佳男主角
EXTD=
EXTT0=
EXTT1=
EXTT2=
EXTT3=
EXTT4=
EXTT5=
EXTT6=
EXTT7=
EXTT8=
EXTT9=
EXTT10=
EXTT11=
EXTT12=
EXTT13=
EXTT14=
EXTT15=
PLAYORDER=
